<?xml version="1.0" standalone="no"?><!DOCTYPE svg PUBLIC "-//W3C//DTD SVG 1.1//EN" "http://www.w3.org/Graphics/SVG/1.1/DTD/svg11.dtd"><svg t="1613376576991" class="icon" viewBox="0 0 1024 1024" version="1.1" xmlns="http://www.w3.org/2000/svg" p-id="914" xmlns:xlink="http://www.w3.org/1999/xlink" width="200" height="200"><defs><style type="text/css"></style></defs><path d="M919.76 318.995c0-9.606-0.185-19.103-0.61-28.535 41.062-30.596 76.687-68.895 104.864-112.72a403.248 403.248 0 0 1-120.684 33.017c43.402-26.709 76.687-69.424 92.415-120.684-40.638 24.645-85.59 42.265-133.384 51.446-38.295-43.575-92.944-71.33-153.358-72.36-116.028-1.919-210.085 96.132-210.085 218.973 0 17.46 1.826 34.394 5.45 50.745-174.722-11.243-329.55-102.19-433.116-239.293-18.071 32.848-28.44 71.237-28.44 112.378 0 77.812 37.092 146.97 93.447 187.78-34.5-1.56-66.819-12.01-95.166-29.142v2.858c0 108.752 72.44 199.87 168.56 221.13-17.621 5.012-36.207 7.62-55.322 7.526a191.542 191.542 0 0 1-39.5-4.326c26.708 89.12 104.332 154.231 196.23 156.4-71.923 59.637-162.525 95.259-260.891 95.01-16.96 0-33.72-1.138-50.152-3.2 93.011 63.8 203.418 100.96 322.105 100.96 386.35 0.092 597.636-336.192 597.636-627.963z" p-id="915"></path></svg>